GIL03_free4_ik
nRows=3
nColumns=375

# SIMM Motion File Header:
name GIL03_free4_ik
datacolumns 375
datarows 3
otherdata 1
range 0.58333000 0.60000000
endheader
time	pelvis_tx	pelvis_ty	pelvis_tz	pelvis_tilt	pelvis_list	pelvis_rotation	hip_flexion_r	hip_adduction_r	hip_rotation_r	knee_angle_r	ankle_angle_r	hip_flexion_l	hip_adduction_l	hip_rotation_l	knee_angle_l	ankle_angle_l	lumbar_extension	lumbar_bending	lumbar_rotation	subtalar_angle_r	mtp_angle_r	subtalar_angle_l	mtp_angle_l	asis_r_px	asis_r_py	asis_r_pz	asis_l_px	asis_l_py	asis_l_pz	midasis_px	midasis_py	midasis_pz	psis_r_px	psis_r_py	psis_r_pz	psis_l_px	psis_l_py	psis_l_pz	hip_r_px	hip_r_py	hip_r_pz	hip_l_px	hip_l_py	hip_l_pz	midhip_px	midhip_py	midhip_pz	epicondLat_r_px	epicondLat_r_py	epicondLat_r_pz	epicondMed_r_px	epicondMed_r_py	epicondMed_r_pz	thighwand_r_px	thighwand_r_py	thighwand_r_pz	upperleg1_r_px	upperleg1_r_py	upperleg1_r_pz	upperleg2_r_px	upperleg2_r_py	upperleg2_r_pz	malleolusLat_r_px	malleolusLat_r_py	malleolusLat_r_pz	malleolusMedv_r_px	malleolusMedv_r_py	malleolusMedv_r_pz	shankwand_r_px	shankwand_r_py	shankwand_r_pz	lowerleg1_r_px	lowerleg1_r_py	lowerleg1_r_pz	knee_r_px	knee_r_py	knee_r_pz	ankle_r_px	ankle_r_py	ankle_r_pz	toe_r_px	toe_r_py	toe_r_pz	epicondLat_l_px	epicondLat_l_py	epicondLat_l_pz	epicondMed_l_px	epicondMed_l_py	epicondMed_l_pz	thighwand_l_px	thighwand_l_py	thighwand_l_pz	upperleg1_l_px	upperleg1_l_py	upperleg1_l_pz	upperleg2_l_px	upperleg2_l_py	upperleg2_l_pz	malleolusLat_l_px	malleolusLat_l_py	malleolusLat_l_pz	malleolusMedv_l_px	malleolusMedv_l_py	malleolusMedv_l_pz	shankwand_l_px	shankwand_l_py	shankwand_l_pz	lowerleg1_l_px	lowerleg1_l_py	lowerleg1_l_pz	knee_l_px	knee_l_py	knee_l_pz	ankle_l_px	ankle_l_py	ankle_l_pz	toe_l_px	toe_l_py	toe_l_pz	subclavicle_r_px	subclavicle_r_py	subclavicle_r_pz	subclavicle_l_px	subclavicle_l_py	subclavicle_l_pz	neck_px	neck_py	neck_pz	sternalnotch_px	sternalnotch_py	sternalnotch_pz	xyphoidprocess_px	xyphoidprocess_py	xyphoidprocess_pz	midhip_tx	midhip_ty	midhip_tz	hip_r_tx	hip_r_ty	hip_r_tz	hip_l_tx	hip_l_ty	hip_l_tz	knee_r_tx	knee_r_ty	knee_r_tz	knee_l_tx	knee_l_ty	knee_l_tz	ankle_r_tx	ankle_r_ty	ankle_r_tz	ankle_l_tx	ankle_l_ty	ankle_l_tz	midasis_tx	midasis_ty	midasis_tz	asis_r_tx	asis_r_ty	asis_r_tz	asis_l_tx	asis_l_ty	asis_l_tz	psis_r_tx	psis_r_ty	psis_r_tz	psis_l_tx	psis_l_ty	psis_l_tz	epicondLat_r_tx	epicondLat_r_ty	epicondLat_r_tz	epicondLat_l_tx	epicondLat_l_ty	epicondLat_l_tz	epicondMed_r_tx	epicondMed_r_ty	epicondMed_r_tz	epicondMed_l_tx	epicondMed_l_ty	epicondMed_l_tz	malleolusLat_r_tx	malleolusLat_r_ty	malleolusLat_r_tz	malleolusLat_l_tx	malleolusLat_l_ty	malleolusLat_l_tz	malleolusMedv_r_tx	malleolusMedv_r_ty	malleolusMedv_r_tz	malleolusMedv_l_tx	malleolusMedv_l_ty	malleolusMedv_l_tz	neck_tx	neck_ty	neck_tz	subclavicle_r_tx	subclavicle_r_ty	subclavicle_r_tz	subclavicle_l_tx	subclavicle_l_ty	subclavicle_l_tz	sternalnotch_tx	sternalnotch_ty	sternalnotch_tz	xyphoidprocess_tx	xyphoidprocess_ty	xyphoidprocess_tz	thighwand_r_tx	thighwand_r_ty	thighwand_r_tz	thighwand_l_tx	thighwand_l_ty	thighwand_l_tz	upperleg1_r_tx	upperleg1_r_ty	upperleg1_r_tz	upperleg1_l_tx	upperleg1_l_ty	upperleg1_l_tz	upperleg2_r_tx	upperleg2_r_ty	upperleg2_r_tz	upperleg2_l_tx	upperleg2_l_ty	upperleg2_l_tz	shankwand_r_tx	shankwand_r_ty	shankwand_r_tz	shankwand_l_tx	shankwand_l_ty	shankwand_l_tz	lowerleg1_r_tx	lowerleg1_r_ty	lowerleg1_r_tz	lowerleg1_l_tx	lowerleg1_l_ty	lowerleg1_l_tz	toe_r_tx	toe_r_ty	toe_r_tz	toe_l_tx	toe_l_ty	toe_l_tz	ground_force_vx	ground_force_vy	ground_force_vz	ground_force_px	ground_force_py	ground_force_pz	ground_force_vx	ground_force_vy	ground_force_vz	ground_force_px	ground_force_py	ground_force_pz	ground_torque_x	ground_torque_y	ground_torque_z	ground_torque_x	ground_torque_y	ground_torque_z	ground_marker_px	ground_marker_py	ground_marker_pz	ground_marker_px	ground_marker_py	ground_marker_pz	ground_marker_px	ground_marker_py	ground_marker_pz	ground_marker_px	ground_marker_py	ground_marker_pz	ground_marker_px	ground_marker_py	ground_marker_pz	ground_marker_px	ground_marker_py	ground_marker_pz	ground_marker_px	ground_marker_py	ground_marker_pz	ground_marker_px	ground_marker_py	ground_marker_pz	ground_marker_px	ground_marker_py	ground_marker_pz	ground_marker_px	ground_marker_py	ground_marker_pz	ground_marker_px	ground_marker_py	ground_marker_pz	ground_marker_px	ground_marker_py	ground_marker_pz	ground_marker_px	ground_marker_py	ground_marker_pz	ground_marker_px	ground_marker_py	ground_marker_pz	ground_marker_px	ground_marker_py	ground_marker_pz	ground_marker_px	ground_marker_py	ground_marker_pz	ground_marker_px	ground_marker_py	ground_marker_pz	ground_marker_px	ground_marker_py	ground_marker_pz	ground_marker_px	ground_marker_py	ground_marker_pz	ground_marker_px	ground_marker_py	ground_marker_pz	ground_marker_px	ground_marker_py	ground_marker_pz	ground_marker_px	ground_marker_py	ground_marker_pz	ground_marker_px	ground_marker_py	ground_marker_pz	ground_marker_px	ground_marker_py	ground_marker_pz	ground_marker_px	ground_marker_py	ground_marker_pz	ground_marker_px	ground_marker_py	ground_marker_pz	ground_marker_px	ground_marker_py	ground_marker_pz	ground_marker_px	ground_marker_py	ground_marker_pz	ground_marker_px	ground_marker_py	ground_marker_pz	ground_marker_px	ground_marker_py	ground_marker_pz	ground_marker_px	ground_marker_py	ground_marker_pz	ground_marker_px	ground_marker_py	ground_marker_pz	ground_marker_px	ground_marker_py	ground_marker_pz	ground_marker_px	ground_marker_py	ground_marker_pz	ground_marker_px	ground_marker_py	ground_marker_pz	ground_marker_px	ground_marker_py	ground_marker_pz	ground_marker_px	ground_marker_py	ground_marker_pz
      0.58333000	      0.58502848	      0.85546014	     -0.22692601	      3.69479947	     -0.31302350	     -3.53486608	    -16.72034402	     -0.47727114	      2.16915818	    -27.19124103	      7.66595964	     23.93260934	     -0.24085992	      7.82451375	    -21.27245318	     -4.18616448	    -14.09105595	     -0.59596727	     15.99057184	      0.00000000	      0.00000000	      0.00000000	      0.00000000	      0.70647461	      0.86581310	     -0.13894047	      0.69586279	      0.85811530	     -0.34022264	      0.59601808	      0.85617353	     -0.22624572	      0.55116950	      0.91321366	     -0.20906156	      0.54797627	      0.91183406	     -0.26385763	      0.52881584	      0.79996825	     -0.16439471	      0.53696016	      0.79977500	     -0.29575896	      0.53288800	      0.79987162	     -0.23007684	      0.51689300	      0.40424361	     -0.10403186	      0.48819153	      0.40460521	     -0.20974123	      0.69150373	      0.52061115	     -0.17875401	      0.64157079	      0.59319459	     -0.12895698	      0.60498092	      0.51546584	     -0.12422545	      0.18474746	      0.11626635	     -0.12518403	      0.21826334	      0.10303870	     -0.18922302	      0.26966035	      0.20336415	     -0.05215364	      0.27817233	      0.20471771	     -0.09361148	      0.44426065	      0.43306713	     -0.16596613	      0.18664384	      0.12832256	     -0.17161138	      0.27073940	      0.02598871	     -0.11055670	      0.78141786	      0.49339447	     -0.34810907	      0.75638653	      0.46864178	     -0.24462202	      0.82029074	      0.68717310	     -0.25861288	      0.74746314	      0.70338925	     -0.32687273	      0.78043657	      0.62189203	     -0.32130286	      0.77695705	      0.06518391	     -0.36261715	      0.79477853	      0.07324059	     -0.29753843	      0.73411393	      0.18385072	     -0.41742941	      0.74726300	      0.18764632	     -0.37638462	      0.71039897	      0.46657591	     -0.28619452	      0.75700515	      0.07062513	     -0.30403804	      0.89942745	      0.03240124	     -0.35296254	      0.61473520	      1.27822198	     -0.18480830	      0.59479573	      1.28035933	     -0.29216688	      0.49645066	      1.31006933	     -0.21333086	      0.58722780	      1.28493877	     -0.24042515	      0.69436816	      1.14806068	     -0.26178144	      0.54191400	      0.81202200	     -0.23705700	      0.54137100	      0.79230200	     -0.17316400	      0.53825600	      0.78980900	     -0.29056800	      0.45251900	      0.42519000	     -0.17072100	      0.70788400	      0.46541600	     -0.28399000	      0.19176800	      0.12435100	     -0.17698500	      0.75254800	      0.06537500	     -0.28997400	      0.59708600	      0.87292700	     -0.22916200	      0.59135300	      0.87365100	     -0.12967800	      0.60281900	      0.87220300	     -0.32864600	      0.43679200	      0.89827700	     -0.21995800	      0.44035000	      0.89528500	     -0.27483100	      0.45727800	      0.42440300	     -0.11593300	      0.72511500	      0.47339000	     -0.33507600	      0.45825800	      0.42592500	     -0.22979000	      0.71049700	      0.44559800	     -0.24282000	      0.18234900	      0.13175300	     -0.14039600	      0.75992500	      0.06676400	     -0.32773500	      0.21294100	      0.12673700	     -0.20574200	      0.77144700	      0.07846500	     -0.26267000	      0.50073800	      1.31242200	     -0.21412100	      0.60587300	      1.23374600	     -0.18454500	      0.58471700	      1.23565000	     -0.29112400	      0.58022300	      1.24647700	     -0.23980300	      0.62582300	      1.07732800	     -0.25091800	      0.63443300	      0.57038500	     -0.16235800	      0.74596300	      0.66904700	     -0.24633700	      0.56479700	      0.63271300	     -0.12325300	      0.67983900	      0.67933100	     -0.32235600	      0.53996100	      0.55100500	     -0.12528500	      0.72281600	      0.60252600	     -0.31333300	      0.25472300	      0.22909800	     -0.06945300	      0.71826000	      0.17936900	     -0.39192000	      0.25941100	      0.23144100	     -0.11099600	      0.72832800	      0.18579100	     -0.35019600	      0.27082500	      0.04567300	     -0.14341000	      0.87997200	      0.04359100	     -0.29743800	     60.10884757	    188.24521845	      1.97058701	      0.29522058	      0.00000000	     -0.15846817	    -46.27156593	    280.93409243	     -2.02869263	      0.75226416	      0.00000000	     -0.29364383	      0.00000000	      0.27779663	      0.00000000	      0.00000000	      0.75993817	      0.00000000	      0.54191351	      0.81202233	     -0.23705664	      0.54137111	      0.79230171	     -0.17316425	      0.53825587	      0.78980911	     -0.29056829	      0.45251942	      0.42518970	     -0.17072131	      0.70788354	      0.46541554	     -0.28399020	      0.19176756	      0.12435140	     -0.17698522	      0.75254810	      0.06537519	     -0.28997368	      0.59708595	      0.87292731	     -0.22916186	      0.59135318	      0.87365144	     -0.12967755	      0.60281867	      0.87220323	     -0.32864615	      0.43679154	      0.89827698	     -0.21995768	      0.44034985	      0.89528465	     -0.27483094	      0.45727777	      0.42440262	     -0.11593318	      0.72511482	      0.47338998	     -0.33507583	      0.45825839	      0.42592484	     -0.22979027	      0.71049654	      0.44559789	     -0.24281977	      0.18234880	      0.13175328	     -0.14039630	      0.75992537	      0.06676365	     -0.32773471	      0.21294121	      0.12673698	     -0.20574214	      0.77144665	      0.07846450	     -0.26266953	      0.50073844	      1.31242168	     -0.21412051	      0.60587335	      1.23374557	     -0.18454519	      0.58471745	      1.23564959	     -0.29112414	      0.58022261	      1.24647713	     -0.23980318	      0.62582254	      1.07732809	     -0.25091779	      0.63443279	      0.57038468	     -0.16235849	      0.74596339	      0.66904676	     -0.24633698	      0.56479681	      0.63271290	     -0.12325282	      0.67983878	      0.67933106	     -0.32235572	      0.53996098	      0.55100548	     -0.12528487	      0.72281569	      0.60252553	     -0.31333274	      0.25472280	      0.22909757	     -0.06945261	      0.71826011	      0.17936938	     -0.39192045	      0.25941125	      0.23144080	     -0.11099606	      0.72832781	      0.18579081	     -0.35019642	      0.27082455	      0.04567300	     -0.14341006	      0.87997204	      0.04359071	     -0.29743797
      0.59167000	      0.59728424	      0.85658444	     -0.22829615	      3.93018350	      0.00259683	     -3.52598536	    -16.13357662	     -1.21932325	      1.63206119	    -29.64906935	      5.41721809	     23.47496460	      0.38323323	      8.15930690	    -22.58821446	     -3.26116860	    -14.18760574	     -0.91591239	     15.65217518	      0.00000000	      0.00000000	      0.00000000	      0.00000000	      0.71873364	      0.86695361	     -0.14031704	      0.70804640	      0.86031641	     -0.34163298	      0.60827118	      0.85733924	     -0.22761756	      0.56319790	      0.91409949	     -0.21009782	      0.55998120	      0.91300735	     -0.26489899	      0.54133323	      0.80051989	     -0.16604165	      0.54940837	      0.80108064	     -0.29740912	      0.54537080	      0.80080026	     -0.23172538	      0.53440884	      0.40527849	     -0.10185359	      0.50632704	      0.40421738	     -0.20772456	      0.70786604	      0.52327115	     -0.17671374	      0.65666411	      0.59565281	     -0.12792175	      0.62110166	      0.51748421	     -0.12263520	      0.19310389	      0.12338518	     -0.12257359	      0.22659639	      0.10861967	     -0.18628787	      0.28010181	      0.20859557	     -0.04977101	      0.28889562	      0.20933521	     -0.09118550	      0.46204069	      0.43207678	     -0.16447235	      0.19562868	      0.13497266	     -0.16909028	      0.27238965	      0.02720875	     -0.10771725	      0.79304020	      0.49360124	     -0.34709894	      0.76690191	      0.46905868	     -0.24383574	      0.83187872	      0.68729954	     -0.25741413	      0.75978580	      0.70376084	     -0.32639143	      0.79235262	      0.62212828	     -0.32042526	      0.77799309	      0.06432898	     -0.36303169	      0.79548704	      0.07169880	     -0.29778292	      0.73879941	      0.18427528	     -0.41778996	      0.75170670	      0.18758693	     -0.37662670	      0.72159016	      0.46711867	     -0.28579758	      0.75771199	      0.07011834	     -0.30459918	      0.90001517	      0.03043063	     -0.35269779	      0.62578167	      1.27931239	     -0.18567785	      0.60629820	      1.28130601	     -0.29312287	      0.50755415	      1.31088473	     -0.21473751	      0.59849896	      1.28591871	     -0.24141847	      0.70601589	      1.14924519	     -0.26218424	      0.55456300	      0.81276300	     -0.23877000	      0.55390300	      0.79270800	     -0.17489400	      0.55087800	      0.79084300	     -0.29231200	      0.46994400	      0.42391300	     -0.16930700	      0.71892400	      0.46611000	     -0.28364400	      0.20101800	      0.13122800	     -0.17485100	      0.75290000	      0.06516300	     -0.29017900	      0.60931700	      0.87387100	     -0.23041200	      0.60351000	      0.87402800	     -0.13085700	      0.61512400	      0.87371400	     -0.32996600	      0.44898100	      0.89843500	     -0.22087800	      0.45250100	      0.89586900	     -0.27576700	      0.47434800	      0.42374100	     -0.11448400	      0.73674800	      0.47397500	     -0.33454200	      0.47542900	      0.42379200	     -0.22756700	      0.72306600	      0.44701900	     -0.24331200	      0.19167300	      0.13912300	     -0.13834700	      0.76183200	      0.06653000	     -0.32760300	      0.22266000	      0.13314000	     -0.20318900	      0.77291800	      0.07763600	     -0.26246700	      0.51179800	      1.31316900	     -0.21545600	      0.61704900	      1.23482200	     -0.18554300	      0.59629800	      1.23651100	     -0.29207300	      0.59151700	      1.24741200	     -0.24081500	      0.63770300	      1.07836800	     -0.25155400	      0.65035000	      0.57134600	     -0.16117800	      0.75759000	      0.66989400	     -0.24563300	      0.57986100	      0.63277300	     -0.12337000	      0.69268600	      0.68109800	     -0.32183100	      0.55570200	      0.55096100	     -0.12440400	      0.73581600	      0.60448200	     -0.31261000	      0.26653900	      0.23470300	     -0.06775400	      0.72589200	      0.17997000	     -0.39290900	      0.27145900	      0.23694600	     -0.10914100	      0.73539000	      0.18574700	     -0.35106600	      0.27458200	      0.04721800	     -0.14325700	      0.88144500	      0.04181900	     -0.29662600	     46.58642937	    130.22033100	      3.79484058	      0.29830603	      0.00000000	     -0.15888852	    -55.77673157	    317.03842042	      2.30959291	      0.75929517	      0.00000000	     -0.29382083	      0.00000000	      0.13922171	      0.00000000	      0.00000000	      0.63281659	      0.00000000	      0.55456328	      0.81276333	     -0.23877022	      0.55390340	      0.79270750	     -0.17489409	      0.55087787	      0.79084307	     -0.29231215	      0.46994448	      0.42391291	     -0.16930677	      0.71892399	      0.46611008	     -0.28364351	      0.20101829	      0.13122751	     -0.17485148	      0.75289994	      0.06516347	     -0.29017857	      0.60931683	      0.87387091	     -0.23041186	      0.60350972	      0.87402773	     -0.13085724	      0.61512387	      0.87371409	     -0.32996646	      0.44898102	      0.89843512	     -0.22087821	      0.45250112	      0.89586926	     -0.27576715	      0.47434792	      0.42374104	     -0.11448359	      0.73674810	      0.47397518	     -0.33454236	      0.47542858	      0.42379230	     -0.22756696	      0.72306579	      0.44701895	     -0.24331155	      0.19167300	      0.13912264	     -0.13834693	      0.76183182	      0.06653033	     -0.32760319	      0.22266035	      0.13313992	     -0.20318910	      0.77291834	      0.07763606	     -0.26246652	      0.51179779	      1.31316936	     -0.21545638	      0.61704934	      1.23482227	     -0.18554315	      0.59629786	      1.23651063	     -0.29207259	      0.59151739	      1.24741185	     -0.24081476	      0.63770330	      1.07836771	     -0.25155446	      0.65034992	      0.57134616	     -0.16117784	      0.75758982	      0.66989434	     -0.24563272	      0.57986081	      0.63277322	     -0.12336990	      0.69268584	      0.68109828	     -0.32183114	      0.55570167	      0.55096096	     -0.12440434	      0.73581642	      0.60448241	     -0.31261036	      0.26653901	      0.23470342	     -0.06775359	      0.72589153	      0.17996970	     -0.39290923	      0.27145872	      0.23694567	     -0.10914129	      0.73539048	      0.18574694	     -0.35106614	      0.27458179	      0.04721766	     -0.14325663	      0.88144481	      0.04181939	     -0.29662630
      0.60000000	      0.60934438	      0.85776389	     -0.22944110	      4.14009386	      0.29198050	     -3.56352833	    -15.32985460	     -1.94610004	      1.04184698	    -32.27584413	      3.19055666	     22.98389726	      0.90874977	      8.20984106	    -23.78695439	     -2.18434997	    -14.27541683	     -1.23231432	     15.36572030	      0.00000000	      0.00000000	      0.00000000	      0.00000000	      0.73072956	      0.86813014	     -0.14137307	      0.72012487	      0.86247760	     -0.34272343	      0.62032829	      0.85855545	     -0.22875531	      0.57504236	      0.91506048	     -0.21096110	      0.57184551	      0.91423524	     -0.26576810	      0.55358111	      0.80117904	     -0.16748963	      0.56169209	      0.80243732	     -0.29885006	      0.55763660	      0.80180818	     -0.23316984	      0.55284833	      0.40655288	     -0.09927321	      0.52563553	      0.40393267	     -0.20534382	      0.72487211	      0.52671401	     -0.17399156	      0.67206166	      0.59870692	     -0.12635254	      0.63778896	      0.52000169	     -0.12053593	      0.20274233	      0.13055583	     -0.12049811	      0.23633411	      0.11426762	     -0.18378763	      0.29154149	      0.21387103	     -0.04767675	      0.30070390	      0.21398958	     -0.08901771	      0.48081755	      0.43099779	     -0.16270956	      0.20599474	      0.14165235	     -0.16708927	      0.27498081	      0.02902616	     -0.10521668	      0.80391623	      0.49354427	     -0.34661695	      0.77710750	      0.46936362	     -0.24344029	      0.84333156	      0.68722172	     -0.25713901	      0.77168937	      0.70392376	     -0.32652683	      0.80378343	      0.62212986	     -0.32021834	      0.77852064	      0.06356821	     -0.36338585	      0.79594177	      0.07036212	     -0.29805514	      0.74266040	      0.18458985	     -0.41806248	      0.75548650	      0.18749020	     -0.37684284	      0.73225526	      0.46753946	     -0.28558689	      0.75816567	      0.06977259	     -0.30502166	      0.90025508	      0.02904615	     -0.35288336	      0.63676881	      1.28046576	     -0.18649200	      0.61773639	      1.28230257	     -0.29402064	      0.51860839	      1.31179091	     -0.21608714	      0.60971021	      1.28695960	     -0.24235495	      0.71756087	      1.15045776	     -0.26251040	      0.56686300	      0.81342500	     -0.24044900	      0.56617100	      0.79325400	     -0.17655300	      0.56334900	      0.79198100	     -0.29398400	      0.48837600	      0.42261100	     -0.16794000	      0.72948300	      0.46669600	     -0.28357800	      0.21167700	      0.13821400	     -0.17270400	      0.75309000	      0.06510500	     -0.29037000	      0.62137300	      0.87490700	     -0.23156000	      0.61539400	      0.87453100	     -0.13194100	      0.62735200	      0.87528300	     -0.33117900	      0.46100900	      0.89873800	     -0.22183800	      0.46455000	      0.89662000	     -0.27675300	      0.49228200	      0.42306600	     -0.11308100	      0.74769000	      0.47437000	     -0.33437100	      0.49414900	      0.42163800	     -0.22555000	      0.73340200	      0.44768900	     -0.24374800	      0.20250800	      0.14652500	     -0.13624700	      0.76324100	      0.06632900	     -0.32748700	      0.23379900	      0.13938900	     -0.20055000	      0.77395300	      0.07721500	     -0.26220600	      0.52276000	      1.31411900	     -0.21673400	      0.62824700	      1.23591400	     -0.18648100	      0.60786700	      1.23737500	     -0.29292600	      0.60276600	      1.24840700	     -0.24180300	      0.64947600	      1.07939400	     -0.25208400	      0.66668000	      0.57266600	     -0.15964100	      0.76919500	      0.67052200	     -0.24559600	      0.59513800	      0.63309600	     -0.12296600	      0.70534100	      0.68223700	     -0.32178600	      0.57205800	      0.55096400	     -0.12326300	      0.74785500	      0.60524600	     -0.31245900	      0.27985000	      0.24007500	     -0.06598200	      0.73239100	      0.18039300	     -0.39372600	      0.28518900	      0.24224600	     -0.10711600	      0.74127300	      0.18585000	     -0.35163900	      0.27951600	      0.04930100	     -0.14305800	      0.88256800	      0.04061300	     -0.29627400	     30.70982859	     79.29332806	      3.76168663	      0.30294080	      0.00000000	     -0.15905582	    -63.40000361	    355.36498548	      7.67630329	      0.76491223	      0.00000000	     -0.29400415	      0.00000000	      0.04137517	      0.00000000	      0.00000000	      0.51439514	      0.00000000	      0.56686342	      0.81342548	     -0.24044868	      0.56617057	      0.79325384	     -0.17655253	      0.56334859	      0.79198080	     -0.29398355	      0.48837614	      0.42261133	     -0.16793993	      0.72948265	      0.46669620	     -0.28357828	      0.21167722	      0.13821433	     -0.17270385	      0.75308985	      0.06510507	     -0.29036957	      0.62137306	      0.87490714	     -0.23155971	      0.61539441	      0.87453109	     -0.13194063	      0.62735176	      0.87528324	     -0.33117878	      0.46100909	      0.89873809	     -0.22183779	      0.46454999	      0.89662033	     -0.27675340	      0.49228236	      0.42306620	     -0.11308070	      0.74768990	      0.47437048	     -0.33437055	      0.49414873	      0.42163834	     -0.22555019	      0.73340213	      0.44768879	     -0.24374752	      0.20250762	      0.14652507	     -0.13624701	      0.76324058	      0.06632946	     -0.32748708	      0.23379873	      0.13938920	     -0.20054992	      0.77395272	      0.07721468	     -0.26220578	      0.52276033	      1.31411946	     -0.21673444	      0.62824702	      1.23591399	     -0.18648109	      0.60786676	      1.23737502	     -0.29292610	      0.60276586	      1.24840736	     -0.24180265	      0.64947563	      1.07939374	     -0.25208396	      0.66667962	      0.57266623	     -0.15964057	      0.76919532	      0.67052239	     -0.24559623	      0.59513807	      0.63309628	     -0.12296622	      0.70534050	      0.68223661	     -0.32178584	      0.57205772	      0.55096430	     -0.12326266	      0.74785525	      0.60524565	     -0.31245893	      0.27985030	      0.24007533	     -0.06598214	      0.73239148	      0.18039341	     -0.39372590	      0.28518927	      0.24224584	     -0.10711637	      0.74127316	      0.18585035	     -0.35163912	      0.27951592	      0.04930099	     -0.14305761	      0.88256836	      0.04061274	     -0.29627389
